<?xml version="1.0" encoding="UTF-8" standalone="no"?>
<!-- Created with Inkscape (http://www.inkscape.org/) -->
<svg xmlns:dc="http://purl.org/dc/elements/1.1/" xmlns:cc="http://creativecommons.org/ns#" xmlns:rdf="http://www.w3.org/1999/02/22-rdf-syntax-ns#" xmlns:svg="http://www.w3.org/2000/svg" xmlns="http://www.w3.org/2000/svg" version="1.1" width="182.96144" height="131.24968" viewBox="0 0 146.36914 104.99975" id="svg2">
  <metadata id="metadata57">
    <rdf:RDF>
      <cc:Work rdf:about="">
        <dc:format>image/svg+xml</dc:format>
        <dc:type rdf:resource="http://purl.org/dc/dcmitype/StillImage"/>
        <dc:title/>
      </cc:Work>
    </rdf:RDF>
  </metadata>
  <defs id="defs55"/>
  <g transform="matrix(0.40173229,0,0,0.40173229,-42.106384,79.787428)" id="g5" style="fill-rule:nonzero;stroke:none">
    <path d="m 121.063,25.141 c -0.454,-0.156 -1.068,-0.273 -1.843,-0.352 -0.775,-0.079 -1.443,-0.117 -2.006,-0.117 -0.938,0 -1.646,0.239 -2.123,0.717 -0.478,0.479 -0.716,1.219 -0.716,2.221 v 2.312 h 4.438 v 4.625 h -4.438 V 55.11 h -7.188 V 34.547 h -2.375 v -4.625 h 2.375 v -3.234 c 0,-2.266 0.778,-4.168 2.336,-5.707 1.557,-1.539 3.502,-2.309 5.834,-2.309 1.174,0 2.289,0.098 3.346,0.293 1.057,0.195 1.843,0.426 2.359,0.691 v 5.484 z" id="path7"/>
    <path d="m 139.36,37.485 c -0.453,-0.363 -1.09,-0.683 -1.91,-0.96 -0.82,-0.276 -1.785,-0.415 -2.895,-0.415 -1.297,0 -2.391,0.191 -3.281,0.572 -0.89,0.381 -1.633,0.852 -2.227,1.412 V 55.11 h -7.188 V 29.922 l 7.188,-0.5 v 2.484 l 2.273,-1.402 c 0.703,-0.436 1.512,-0.798 2.426,-1.087 0.914,-0.288 1.754,-0.433 2.52,-0.433 0.812,0 1.465,0.051 1.957,0.152 0.492,0.101 0.871,0.215 1.137,0.34 v 8.008 z" id="path9"/>
    <path d="M 167.438,43.61 H 148.75 c 0.39,2.033 1.197,3.5 2.422,4.4 1.225,0.9 2.71,1.35 4.458,1.35 1.404,0 2.956,-0.207 4.657,-0.621 1.7,-0.414 3.042,-0.957 4.025,-1.629 v 6.375 c -0.922,0.654 -2.31,1.172 -4.161,1.553 -1.853,0.381 -3.342,0.572 -4.467,0.572 -4.455,0 -7.933,-1.214 -10.434,-3.643 -2.501,-2.428 -3.751,-5.68 -3.751,-9.756 0,-4.106 1.276,-7.421 3.831,-9.943 2.554,-2.521 5.744,-3.783 9.571,-3.783 3.826,0 6.876,1.349 9.149,4.045 2.272,2.697 3.401,6.391 3.386,11.08 z m -6.625,-3.375 c -0.357,-1.88 -1.077,-3.298 -2.157,-4.254 -1.08,-0.955 -2.421,-1.434 -4.021,-1.434 -1.866,0 -3.273,0.518 -4.222,1.552 -0.949,1.034 -1.523,2.413 -1.725,4.136 h 12.125 z" id="path11"/>
    <path d="M 195.797,43.61 H 177.11 c 0.39,2.033 1.197,3.5 2.422,4.4 1.225,0.9 2.71,1.35 4.458,1.35 1.404,0 2.956,-0.207 4.657,-0.621 1.7,-0.414 3.042,-0.957 4.025,-1.629 v 6.375 c -0.922,0.654 -2.31,1.172 -4.161,1.553 -1.853,0.381 -3.342,0.572 -4.467,0.572 -4.455,0 -7.933,-1.214 -10.434,-3.643 -2.501,-2.428 -3.751,-5.68 -3.751,-9.756 0,-4.106 1.276,-7.421 3.831,-9.943 2.554,-2.521 5.744,-3.783 9.571,-3.783 3.826,0 6.876,1.349 9.149,4.045 2.272,2.697 3.401,6.391 3.386,11.08 z m -6.625,-3.375 c -0.357,-1.88 -1.077,-3.298 -2.157,-4.254 -1.08,-0.955 -2.421,-1.434 -4.021,-1.434 -1.866,0 -3.273,0.518 -4.222,1.552 -0.949,1.034 -1.523,2.413 -1.725,4.136 h 12.125 z" id="path13"/>
    <path d="m 223.243,55.11 h -5.438 l -1.562,-2.25 -3.778,2.05 c -0.313,0.172 -0.768,0.299 -1.361,0.385 -0.595,0.085 -1.111,0.128 -1.549,0.128 -3.692,0 -6.497,-1.244 -8.413,-3.733 -1.917,-2.488 -2.883,-5.611 -2.898,-9.368 -0.016,-4.069 1.137,-7.31 3.458,-9.72 2.321,-2.41 5.39,-3.616 9.204,-3.616 1.094,0 2.055,0.086 2.883,0.258 0.828,0.172 1.626,0.477 2.393,0.914 V 19.11 h 7.062 v 36 z M 216.18,47.422 V 36.219 c -0.392,-0.488 -1.041,-0.91 -1.948,-1.265 -0.908,-0.354 -1.894,-0.532 -2.957,-0.532 -1.973,0 -3.439,0.578 -4.401,1.733 -0.963,1.155 -1.443,2.99 -1.443,5.504 0,2.562 0.512,4.476 1.537,5.74 1.025,1.266 2.414,1.897 4.166,1.897 1.127,0 2.116,-0.185 2.97,-0.556 0.853,-0.37 1.545,-0.81 2.077,-1.319 z" id="path15"/>
    <path d="m 253.454,43.61 h -18.688 c 0.39,2.033 1.197,3.5 2.422,4.4 1.225,0.9 2.71,1.35 4.458,1.35 1.404,0 2.956,-0.207 4.657,-0.621 1.7,-0.414 3.042,-0.957 4.025,-1.629 v 6.375 c -0.922,0.654 -2.31,1.172 -4.161,1.553 -1.853,0.381 -3.342,0.572 -4.467,0.572 -4.455,0 -7.933,-1.214 -10.434,-3.643 -2.501,-2.428 -3.751,-5.68 -3.751,-9.756 0,-4.106 1.276,-7.421 3.831,-9.943 2.554,-2.521 5.744,-3.783 9.571,-3.783 3.826,0 6.876,1.349 9.149,4.045 2.272,2.697 3.401,6.391 3.386,11.08 z m -6.625,-3.375 c -0.357,-1.88 -1.077,-3.298 -2.157,-4.254 -1.08,-0.955 -2.421,-1.434 -4.021,-1.434 -1.866,0 -3.273,0.518 -4.222,1.552 -0.949,1.034 -1.523,2.413 -1.725,4.136 h 12.125 z" id="path17"/>
    <path d="m 276.313,46.474 c 0,2.749 -0.984,4.959 -2.951,6.63 -1.967,1.671 -4.402,2.506 -7.307,2.506 -1.358,0 -2.986,-0.138 -4.883,-0.411 -1.897,-0.274 -3.58,-0.804 -5.047,-1.589 v -6.312 c 1.156,0.646 2.469,1.203 3.938,1.672 1.469,0.469 3.172,0.703 5.109,0.703 1.391,0 2.512,-0.2 3.363,-0.602 0.852,-0.4 1.277,-1.126 1.277,-2.175 0,-0.687 -0.359,-1.244 -1.077,-1.674 -0.718,-0.43 -1.966,-0.723 -3.745,-0.879 -3.184,-0.266 -5.416,-1.038 -6.695,-2.319 -1.28,-1.28 -1.92,-2.998 -1.92,-5.153 0,-2.436 0.98,-4.442 2.941,-6.02 1.961,-1.578 4.371,-2.366 7.23,-2.366 1.25,0 2.586,0.113 4.008,0.34 1.422,0.227 2.633,0.509 3.633,0.848 v 6.375 c -1.25,-0.557 -2.496,-0.967 -3.738,-1.23 -1.242,-0.263 -2.582,-0.395 -4.02,-0.395 -1.156,0 -2.059,0.196 -2.707,0.587 -0.648,0.392 -0.973,0.848 -0.973,1.369 0,0.953 0.46,1.581 1.38,1.886 0.92,0.305 1.886,0.488 2.899,0.551 3.086,0.203 5.405,0.969 6.956,2.296 1.551,1.327 2.327,3.115 2.327,5.363 z" id="path19"/>
    <path d="m 304.704,55.11 h -8.574 l -7.052,-11.068 -1.499,1.394 v 9.675 h -7.188 v -36 h 7.188 v 19.421 l 9.669,-9.671 4.769,3.185 -7.687,7.119 10.374,15.946 z" id="path21"/>
    <path d="m 318.938,50.735 -5.219,4.875 c -2.156,-0.891 -3.773,-2.192 -4.852,-3.905 -1.078,-1.712 -1.617,-3.757 -1.617,-6.134 V 34.547 h -2.375 v -4.625 h 2.375 V 21.61 l 7.188,-0.5 v 8.812 h 3.75 v 4.625 h -3.75 v 9.009 c 0,1.799 0.406,3.293 1.219,4.481 0.813,1.188 1.906,2.088 3.281,2.697 z" id="path23"/>
    <path d="m 347.165,42.047 c 0,4.139 -1.186,7.434 -3.557,9.885 -2.371,2.452 -5.623,3.678 -9.756,3.678 -4.445,0 -7.775,-1.233 -9.99,-3.701 -2.215,-2.467 -3.322,-5.754 -3.322,-9.861 0,-3.732 1.192,-6.926 3.579,-9.58 2.387,-2.654 5.631,-3.982 9.733,-3.982 4.117,0 7.365,1.227 9.744,3.678 2.379,2.452 3.568,5.747 3.568,9.885 z m -7.25,0 c 0,-2.036 -0.536,-3.848 -1.606,-5.434 -1.071,-1.586 -2.553,-2.379 -4.444,-2.379 -2.174,0 -3.729,0.724 -4.667,2.169 -0.938,1.446 -1.407,3.327 -1.407,5.644 0,2.161 0.562,4.004 1.688,5.527 1.125,1.523 2.634,2.285 4.526,2.285 2.11,0 3.623,-0.617 4.538,-1.854 0.914,-1.236 1.372,-3.223 1.372,-5.959 z" id="path25"/>
    <path d="m 376.461,41.833 c 0,3.89 -1.192,7.096 -3.577,9.618 -2.385,2.523 -5.282,3.784 -8.691,3.784 -1.174,0 -2.249,-0.094 -3.226,-0.279 -0.978,-0.186 -1.771,-0.426 -2.381,-0.721 v 8.5 h -7.062 V 29.922 l 6.758,-0.5 0.367,1.492 2.391,-1.172 c 0.766,-0.375 1.445,-0.668 2.039,-0.879 0.594,-0.211 1.297,-0.316 2.109,-0.316 3.453,0 6.195,1.254 8.227,3.761 2.031,2.508 3.047,5.683 3.047,9.524 z m -7.187,0.324 c 0,-2.061 -0.541,-3.844 -1.621,-5.35 -1.08,-1.506 -2.568,-2.26 -4.463,-2.26 -1.253,0 -2.239,0.198 -2.96,0.594 -0.721,0.396 -1.269,0.808 -1.644,1.234 v 11.859 c 0.375,0.434 1.002,0.781 1.879,1.044 0.877,0.263 1.848,0.394 2.913,0.394 2.02,0 3.508,-0.636 4.463,-1.908 0.955,-1.271 1.433,-3.141 1.433,-5.607 z" id="path27"/>
    <path d="m 389.211,55.11 h -7.438 v -7.625 h 7.438 v 7.625 z" id="path29"/>
    <path d="m 421.157,42.047 c 0,4.139 -1.186,7.434 -3.557,9.885 -2.371,2.452 -5.623,3.678 -9.756,3.678 -4.445,0 -7.775,-1.233 -9.99,-3.701 -2.215,-2.467 -3.322,-5.754 -3.322,-9.861 0,-3.732 1.192,-6.926 3.579,-9.58 2.387,-2.654 5.631,-3.982 9.733,-3.982 4.117,0 7.365,1.227 9.744,3.678 2.379,2.452 3.568,5.747 3.568,9.885 z m -7.25,0 c 0,-2.036 -0.536,-3.848 -1.606,-5.434 -1.071,-1.586 -2.553,-2.379 -4.444,-2.379 -2.174,0 -3.729,0.724 -4.667,2.169 -0.938,1.446 -1.407,3.327 -1.407,5.644 0,2.161 0.562,4.004 1.688,5.527 1.125,1.523 2.634,2.285 4.526,2.285 2.11,0 3.623,-0.617 4.538,-1.854 0.914,-1.236 1.372,-3.223 1.372,-5.959 z" id="path31"/>
    <path d="m 443.016,37.485 c -0.453,-0.363 -1.09,-0.683 -1.91,-0.96 -0.82,-0.276 -1.785,-0.415 -2.895,-0.415 -1.297,0 -2.391,0.191 -3.281,0.572 -0.89,0.381 -1.633,0.852 -2.227,1.412 V 55.11 h -7.188 V 29.922 l 7.188,-0.5 v 2.484 l 2.273,-1.402 c 0.703,-0.436 1.512,-0.798 2.426,-1.087 0.914,-0.288 1.754,-0.433 2.52,-0.433 0.812,0 1.465,0.051 1.957,0.152 0.492,0.101 0.871,0.215 1.137,0.34 v 8.008 z" id="path33"/>
    <path d="m 469.157,51.914 c 0,1.577 -0.301,2.994 -0.9,4.251 -0.601,1.256 -1.392,2.329 -2.373,3.22 -0.967,0.874 -2.034,1.592 -3.203,2.153 -1.17,0.561 -2.284,0.968 -3.344,1.221 l -6.242,-0.023 v -4.062 c 3.568,0 5.971,-0.348 7.207,-1.042 1.236,-0.695 1.855,-1.868 1.855,-3.521 V 52.33 l -2.509,1.688 c -0.47,0.312 -1.017,0.531 -1.642,0.656 -0.625,0.125 -1.204,0.188 -1.735,0.188 -3.533,0 -6.269,-1.184 -8.207,-3.551 -1.938,-2.367 -2.907,-5.59 -2.907,-9.668 0,-3.797 1.134,-6.918 3.401,-9.363 2.267,-2.445 5.121,-3.668 8.562,-3.668 1.126,0 2.275,0.19 3.448,0.57 1.173,0.38 2.244,0.981 3.214,1.805 l 3.875,-1.5 1.5,0.438 v 21.991 z m -6.813,-5.132 V 36.735 c -0.404,-0.645 -0.926,-1.16 -1.563,-1.546 -0.637,-0.386 -1.509,-0.579 -2.612,-0.579 -2.068,0 -3.546,0.648 -4.433,1.943 -0.887,1.296 -1.329,2.794 -1.329,4.495 0,2.264 0.458,4.121 1.376,5.572 0.918,1.451 2.31,2.177 4.176,2.177 0.948,0 1.812,-0.18 2.589,-0.539 0.777,-0.359 1.377,-0.852 1.797,-1.477 z" id="path35"/>
  </g>
  <g transform="translate(29.698388,0.02207591)" id="g37" style="fill:#ffffff;fill-rule:nonzero;stroke:#3b80ae;stroke-width:2.45880008;stroke-miterlimit:4">
    <g id="g39">
      <path d="M 85.277,40.796 C 87.335,48.68 82.61,56.738 74.726,58.795 L 27.143,71.21 C 19.259,73.267 11.2,68.543 9.143,60.658 L 1.695,32.108 C -0.362,24.224 4.362,16.166 12.246,14.109 L 59.83,1.695 c 7.884,-2.057 15.942,2.667 17.999,10.551 l 7.449,28.55 z" id="path41" style="stroke:#bababa"/>
      <path d="m 80.444,39.778 c 1.749,7.854 -1.816,13.621 -9.504,15.447 L 28.704,66.245 C 21.135,68.641 14.615,65.064 12.866,57.409 L 6.53,33.127 C 4.781,24.982 7.239,20.238 16.033,17.68 L 58.27,6.661 c 8.144,-1.826 14.089,1.363 15.838,8.835 l 6.336,24.282 z" id="path43" style="fill:#3b80ae;stroke:none"/>
    </g>
    <path d="M 45.542,51.793 24.104,31.102 62.204,26.709 45.542,51.793 z" id="path45" style="opacity:0.5;fill:none;stroke:#ffffff"/>
    <path d="m 72.325,28.769 c 0.405,1.55 -0.525,3.136 -2.075,3.541 l -12.331,3.217 c -1.551,0.404 -3.137,-0.525 -3.542,-2.076 L 52.082,24.65 c -0.405,-1.551 0.524,-3.137 2.076,-3.542 l 12.33,-3.217 c 1.551,-0.405 3.137,0.525 3.542,2.076 l 2.295,8.801 z" id="path47"/>
    <path d="m 36.51,33.625 c 0.496,1.9 -0.645,3.844 -2.545,4.34 l -15.112,3.943 c -1.901,0.496 -3.845,-0.644 -4.34,-2.544 L 11.699,28.578 c -0.496,-1.901 0.644,-3.844 2.544,-4.34 l 15.113,-3.942 c 1.901,-0.496 3.845,0.643 4.34,2.544 l 2.814,10.786 z" id="path49"/>
    <path d="m 52.493,53.208 c 0.278,1.065 -0.36,2.154 -1.425,2.432 L 42.6,57.848 c -1.064,0.277 -2.153,-0.36 -2.431,-1.426 l -1.577,-6.043 c -0.277,-1.064 0.36,-2.153 1.425,-2.432 l 8.468,-2.209 c 1.064,-0.277 2.154,0.361 2.431,1.426 l 1.577,6.043 z" id="path51"/>
  </g>
</svg>